<svg xmlns="http://www.w3.org/2000/svg" version="1.1" xmlns:xlink="http://www.w3.org/1999/xlink" xmlns:svgjs="http://svgjs.dev/svgjs" width="90" height="90" viewBox="0 0 1500 916"><g transform="matrix(1,0,0,1,-0.9090909090909918,0.6771285294075824)"><svg viewBox="0 0 396 242" data-background-color="#ffffff" preserveAspectRatio="xMidYMid meet" height="916" width="1500" xmlns="http://www.w3.org/2000/svg" xmlns:xlink="http://www.w3.org/1999/xlink"><g id="tight-bounds" transform="matrix(1,0,0,1,0.2400000000000091,-0.17889203506183549)"><svg viewBox="0 0 395.52 242.35778407012367" height="242.35778407012367" width="395.52"><g><svg viewBox="0 0 395.52 242.35778407012367" height="242.35778407012367" width="395.52"><g transform="matrix(1,0,0,1,0,180.32614074796942)"><svg viewBox="0 0 395.52 62.03164332215426" height="62.03164332215426" width="395.52"><g id="textblocktransform"><svg viewBox="0 0 395.52 62.03164332215426" height="62.03164332215426" width="395.52" id="textblock"><g><svg viewBox="0 0 395.52 62.03164332215426" height="62.03164332215426" width="395.52"><g transform="matrix(1,0,0,1,0,0)"><svg width="395.52" viewBox="4.2 -39.2 253.43 39.75" height="62.03164332215426" data-palette-color="#6936f5"><path d="M8.75-36.8L8.75-36.8 26.05-36.8Q29.85-36.8 31.33-35.9 32.8-35 32.8-33.18 32.8-31.35 31.2-30L31.2-30Q28.8-30.95 24.9-30.95L24.9-30.95 13.75-30.95 13.75-22.1 20.65-22.1Q24.65-22.1 26.33-21.38 28-20.65 28-18.98 28-17.3 26.4-16.2L26.4-16.2Q24.6-16.7 20.1-16.7L20.1-16.7 13.75-16.7 13.75-5.15Q13.75-2.45 15.35-1.6L15.35-1.6Q13.55 0.55 10.8 0.55L10.8 0.55Q5.9 0.55 5.9-5.4L5.9-5.4 5.9-31.15Q5.9-33.7 4.2-34.6L4.2-34.6Q6.05-36.8 8.75-36.8ZM44-6.85L44-6.85Q44-4.4 46.8-4.4L46.8-4.4Q48.85-4.4 50.5-6.3L50.5-6.3 50.5-11.15Q44-10.8 44-6.85ZM58.35-17.7L58.35-17.7 58.35-6.35Q58.35-3.2 61.05-2.35L61.05-2.35Q60.15-1.1 58.62-0.28 57.1 0.55 55.4 0.55L55.4 0.55Q51.7 0.55 50.8-2.75L50.8-2.75Q47.7 0.55 43.05 0.55L43.05 0.55Q39.6 0.55 37.55-1.15 35.5-2.85 35.5-5.95L35.5-5.95Q35.5-9.75 39.47-12.03 43.45-14.3 50.5-14.4L50.5-14.4 50.5-19.15Q50.5-22.5 47.8-22.5L47.8-22.5Q46.7-22.5 45.97-21.83 45.25-21.15 45.25-20.03 45.25-18.9 46.05-17.95L46.05-17.95Q44.35-16.15 41.77-16.15 39.2-16.15 37.97-17.3 36.75-18.45 36.75-20.3L36.75-20.3Q36.75-23.1 40.17-24.9 43.6-26.7 48.17-26.7 52.75-26.7 55.55-24.55 58.35-22.4 58.35-17.7ZM73.7-33.25L73.7-33.25 73.7-16.4Q83-20.75 83-26.7L83-26.7Q86.35-26.7 88.4-25.35 90.45-24 90.45-21.58 90.45-19.15 87.72-17.3 85-15.45 79.15-13.7L79.15-13.7Q84-8.8 86.35-7.45 88.7-6.1 91.6-6.1L91.6-6.1Q91.6-2.95 90.1-1.2 88.6 0.55 85.95 0.55 83.3 0.55 80.52-2.13 77.75-4.8 73.7-11.35L73.7-11.35 73.7-5.15Q73.7-2.45 75.35-1.6L75.35-1.6Q73.45 0.55 70.75 0.55L70.75 0.55Q65.85 0.55 65.85-5.4L65.85-5.4 65.85-33.55Q65.85-36.05 64.15-37.1L64.15-37.1Q66.05-39.2 68.75-39.2L68.75-39.2Q73.7-39.2 73.7-33.25ZM109.39-16.55Q110.29-16.65 110.74-17.13 111.19-17.6 111.19-18.95 111.19-20.3 110.42-21.43 109.64-22.55 108.29-22.55 106.94-22.55 105.74-20.85 104.54-19.15 104.14-15.9L104.14-15.9 109.39-16.55ZM110.24-4.9L110.24-4.9Q114.39-4.9 117.19-8.05L117.19-8.05Q118.34-7.55 118.34-5.95L118.34-5.95Q118.34-3.55 115.49-1.5 112.64 0.55 108.79 0.55L108.79 0.55Q102.84 0.55 99.52-2.7 96.19-5.95 96.19-12.03 96.19-18.1 99.84-22.4 103.49-26.7 109.09-26.7L109.09-26.7Q113.39-26.7 116.19-23.93 118.99-21.15 118.99-17.6L118.99-17.6Q118.99-14.85 117.69-13.65 116.39-12.45 113.24-12.35L113.24-12.35 103.99-12.1Q104.34-4.9 110.24-4.9ZM152.64-29.9L152.64-29.9Q152.64-28.05 151.47-26.93 150.29-25.8 148.24-25.8 146.19-25.8 144.39-27.1L144.39-27.1Q144.79-27.9 144.79-29.18 144.79-30.45 143.32-31.45 141.84-32.45 139.12-32.45 136.39-32.45 134.64-31.45 132.89-30.45 132.89-28.78 132.89-27.1 135.02-25.68 137.14-24.25 140.17-22.93 143.19-21.6 146.22-20.05 149.24-18.5 151.37-16 153.49-13.5 153.49-10.4L153.49-10.4Q153.49-5.6 149.22-2.53 144.94 0.55 138.87 0.55 132.79 0.55 128.59-1.73 124.39-4 124.39-7.6L124.39-7.6Q124.39-9.7 125.87-10.95 127.34-12.2 129.42-12.2 131.49-12.2 133.49-10.6L133.49-10.6Q132.29-9.5 132.29-7.95 132.29-6.4 134.12-5.35 135.94-4.3 139.02-4.3 142.09-4.3 143.87-5.55 145.64-6.8 145.64-8.88 145.64-10.95 143.52-12.58 141.39-14.2 138.37-15.5 135.34-16.8 132.32-18.25 129.29-19.7 127.17-21.93 125.04-24.15 125.04-27L125.04-27Q125.04-31.7 129.14-34.5 133.24-37.3 139.19-37.3 145.14-37.3 148.89-35.2 152.64-33.1 152.64-29.9ZM167.99-21.35L167.59-21.35 167.59-7.85Q167.59-4.7 170.04-4.7L170.04-4.7Q172.74-4.7 175.04-7.15L175.04-7.15Q175.74-7.15 176.21-6.58 176.69-6 176.69-5.05L176.69-5.05Q176.69-3 174.19-1.23 171.69 0.55 168.01 0.55 164.34 0.55 162.04-1.3 159.74-3.15 159.74-6.95L159.74-6.95 159.74-21.35Q157.94-21.4 157.04-22.23 156.14-23.05 156.14-24.3 156.14-25.55 157.19-26.3L157.19-26.3Q158.39-26.15 159.74-26.15L159.74-26.15 159.74-27.65Q159.74-30.25 158.04-31.15L158.04-31.15Q159.94-33.3 162.56-33.3 165.19-33.3 166.39-31.85 167.59-30.4 167.59-27.35L167.59-27.35 167.59-26.15 175.14-26.15Q175.49-25.75 175.49-25.15L175.49-25.15Q175.49-23.6 173.81-22.48 172.14-21.35 167.99-21.35L167.99-21.35ZM191.89-22.9L191.89-22.9Q187.59-22.9 187.59-15.4L187.59-15.4Q187.59-14.3 187.69-13.1L187.69-13.1Q188.29-3.25 193.19-3.25L193.19-3.25Q197.49-3.25 197.49-10.8L197.49-10.8Q197.49-11.85 197.39-13.1L197.39-13.1Q196.69-22.9 191.89-22.9ZM183.24-23.18Q186.79-26.7 192.54-26.7 198.29-26.7 201.84-23.18 205.39-19.65 205.39-13.1 205.39-6.55 201.81-3 198.24 0.55 192.51 0.55 186.79 0.55 183.24-3 179.69-6.55 179.69-13.1 179.69-19.65 183.24-23.18ZM211.68-5.4L211.68-5.4 211.68-21.05Q211.68-23.65 209.98-24.55L209.98-24.55Q211.88-26.7 214.58-26.7L214.58-26.7Q219.03-26.7 219.48-21.9L219.48-21.9Q221.48-26.7 226.13-26.7L226.13-26.7Q228.48-26.7 230.01-25.3 231.53-23.9 231.53-21.55 231.53-19.2 230.36-17.82 229.18-16.45 226.78-16.45L226.78-16.45Q226.48-16.45 225.48-16.55L225.48-16.55Q225.68-17.45 225.68-17.7L225.68-17.7Q225.68-18.95 224.96-19.68 224.23-20.4 223.18-20.4L223.18-20.4Q220.48-20.4 219.53-16.3L219.53-16.3 219.53-5.15Q219.53-2.45 221.18-1.6L221.18-1.6Q219.28 0.55 216.58 0.55L216.58 0.55Q211.68 0.55 211.68-5.4ZM248.03-16.55Q248.93-16.65 249.38-17.13 249.83-17.6 249.83-18.95 249.83-20.3 249.06-21.43 248.28-22.55 246.93-22.55 245.58-22.55 244.38-20.85 243.18-19.15 242.78-15.9L242.78-15.9 248.03-16.55ZM248.88-4.9L248.88-4.9Q253.03-4.9 255.83-8.05L255.83-8.05Q256.98-7.55 256.98-5.95L256.98-5.95Q256.98-3.55 254.13-1.5 251.28 0.55 247.43 0.55L247.43 0.55Q241.48 0.55 238.16-2.7 234.83-5.95 234.83-12.03 234.83-18.1 238.48-22.4 242.13-26.7 247.73-26.7L247.73-26.7Q252.03-26.7 254.83-23.93 257.63-21.15 257.63-17.6L257.63-17.6Q257.63-14.85 256.33-13.65 255.03-12.45 251.88-12.35L251.88-12.35 242.63-12.1Q242.98-4.9 248.88-4.9Z" opacity="1" transform="matrix(1,0,0,1,0,0)"  class="wordmark-text-0" data-fill-palette-color="primary" id="text-0"></path></svg></g></svg></g></svg></g></svg></g><g transform="matrix(1,0,0,1,122.24111185493618,0)"><svg viewBox="0 0 151.03777629012762 151.03777629012762" height="151.03777629012762" width="151.03777629012762"><g><svg></svg></g><g id="icon-0"><svg viewBox="0 0 151.03777629012762 151.03777629012762" height="151.03777629012762" width="151.03777629012762"><g><path d="M0 75.519c0-41.708 33.811-75.519 75.519-75.519 41.708 0 75.519 33.811 75.519 75.519 0 41.708-33.811 75.519-75.519 75.519-41.708 0-75.519-33.811-75.519-75.519zM75.519 145.444c38.618 0 69.925-31.306 69.925-69.925 0-38.618-31.306-69.925-69.925-69.925-38.618 0-69.925 31.306-69.925 69.925 0 38.618 31.306 69.925 69.925 69.925z" data-fill-palette-color="tertiary"  stroke="transparent"></path></g><g transform="matrix(1,0,0,1,31.816246572997777,41.37792715390193)"><svg viewBox="0 0 87.40528314413207 68.28192198232377" height="68.28192198232377" width="87.40528314413207"><g><svg xmlns="http://www.w3.org/2000/svg" xmlns:xlink="http://www.w3.org/1999/xlink" version="1.1" x="0" y="0" viewBox="0.18800000000000017 11.214999999999996 99.598 77.80699999999999" enable-background="new 0 0 100 100" xml:space="preserve" height="68.28192198232377" width="87.40528314413207" class="icon-cg-0" data-fill-palette-color="accent" id="cg-0"><path d="M45.885 30.002v-9.394c0-5.179-4.213-9.393-9.393-9.393s-9.394 4.214-9.394 9.393v9.394H45.885zM30.19 21.336c2.354-0.229 4.746-1.634 6.373-2.804 1.47 1.946 3.462 3.756 5.819 4.428-0.937 2.337-3.221 3.994-5.889 3.994C33.239 26.955 30.553 24.494 30.19 21.336zM42.8 19.922c-0.167-0.062-0.329-0.142-0.491-0.221l-3.984-3.931c-0.32-0.499-0.597-0.983-0.819-1.419C40.302 14.802 42.493 17.081 42.8 19.922zM34.312 14.655c0.163 0.4 0.373 0.84 0.612 1.297-1.394 1.014-2.955 1.875-4.289 2.213C31.315 16.541 32.654 15.265 34.312 14.655z"  data-fill-palette-color="accent"></path><path d="M66.529 30.609c-6.55 0-11.879 5.33-11.879 11.879v17.009h3.037v28.87h7.883l0.001-22.679h1.915l-0.002 22.679h7.89v-28.87h3.033V42.488C78.408 35.938 73.079 30.609 66.529 30.609zM75.36 59.497h-1.369-1.523H60.588h-1.523-1.369V42.488c0-4.87 3.962-8.833 8.832-8.833 4.87 0 8.831 3.963 8.831 8.833V59.497z"  data-fill-palette-color="accent"></path><path d="M66.529 30.001c5.18 0 9.393-4.214 9.393-9.394 0-5.178-4.213-9.392-9.393-9.392-5.18 0-9.394 4.214-9.394 9.392C57.135 25.787 61.349 30.001 66.529 30.001zM66.529 26.954c-3.5 0-6.347-2.848-6.347-6.347 0-0.294 0.027-0.582 0.066-0.866l9.467-3.241c0.992 0.79 2.045 1.64 2.904 2.336 0.164 0.562 0.256 1.155 0.256 1.77C72.875 24.107 70.029 26.954 66.529 26.954z"  data-fill-palette-color="accent"></path><rect x="87.084" y="73.174" width="3.046" height="15.847" fill="#bb84e8" data-fill-palette-color="accent"></rect><g  data-fill-palette-color="accent"><rect x="93.692" y="73.174" width="3.046" height="15.847" data-fill-palette-color="accent"></rect><path d="M91.911 54.09c-4.343 0-7.875 3.533-7.875 7.876v11.209h3.046V61.965c0-2.663 2.166-4.829 4.829-4.829s4.829 2.167 4.829 4.829v11.209h3.046V61.965C99.786 57.623 96.253 54.09 91.911 54.09z"  data-fill-palette-color="accent"></path></g><path d="M91.912 53.755c3.75 0 6.801-3.051 6.801-6.801s-3.05-6.801-6.801-6.801c-3.751 0-6.802 3.051-6.802 6.801S88.161 53.755 91.912 53.755zM91.912 50.709c-2.071 0-3.756-1.684-3.756-3.755 0-0.668 0.19-1.287 0.497-1.831l1.592-1.226c1.425 1.229 3.591 2.26 5.36 2.444 0.033 0.2 0.062 0.403 0.062 0.612C95.667 49.024 93.983 50.709 91.912 50.709z"  data-fill-palette-color="accent"></path><path d="M44.797 51.821H46.2h1.523V41.394c0-6.129-4.986-11.117-11.116-11.117-6.13 0-11.117 4.988-11.117 11.117v10.427h1.523 1.43L24.442 72.88h7.665v15.425h3.046V72.88H38.2v15.425h3.046V72.88h7.524L44.797 51.821zM30.984 54.772h11.271l2.84 15.061H28.121L30.984 54.772z" data-fill-palette-color="accent"></path><path d="M5.061 51.609c0-0.254-0.114-1.671-1.718-1.718-1.761-0.054-2.702 2.684-3.155 3.415C1.454 54.036 5.061 54.118 5.061 51.609z"  data-fill-palette-color="accent"></path><path d="M17.337 66.964v-6.255c0-3.65-2.968-6.618-6.618-6.618s-6.618 2.969-6.618 6.618l0.003 6.181L1.135 78.407h4.756v10.615h3.047V78.407H12.5v10.615h3.046V78.407h4.756L17.337 66.964zM5.072 75.361l2.013-7.767 0.063-6.886c0-1.97 1.602-3.572 3.571-3.572s3.571 1.602 3.571 3.572l0.003 6.362 2.073 8.291H5.072z"  data-fill-palette-color="accent"></path><path d="M10.72 53.755c3.75 0 6.801-3.051 6.801-6.801s-3.051-6.801-6.801-6.801c-3.75 0-6.802 3.051-6.802 6.801S6.969 53.755 10.72 53.755zM10.72 50.709c-2.07 0-3.756-1.684-3.756-3.755 0-0.046 0.012-0.088 0.014-0.134 0.966-0.374 2.436-1.096 3.57-2.317 0.945 0.872 2.308 1.65 3.856 1.748 0.044 0.228 0.071 0.463 0.071 0.703C14.475 49.024 12.79 50.709 10.72 50.709z" data-fill-palette-color="accent"></path></svg></g></svg></g></svg></g></svg></g><g></g></svg></g><defs></defs></svg><rect width="395.52" height="242.35778407012367" fill="none" stroke="none" visibility="hidden"></rect></g></svg></g></svg>